<?xml version="1.0" encoding="UTF-8" standalone="no"?>
<!-- Created with Inkscape (http://www.inkscape.org/) -->

<svg
   version="1.1"
   id="svg2"
   width="1600"
   height="1600"
   viewBox="0 0 1600 1600"
   sodipodi:docname="image-from-rawpixel-id-8925864-original.eps"
   xmlns:inkscape="http://www.inkscape.org/namespaces/inkscape"
   xmlns:sodipodi="http://sodipodi.sourceforge.net/DTD/sodipodi-0.dtd"
   xmlns="http://www.w3.org/2000/svg"
   xmlns:svg="http://www.w3.org/2000/svg">
  <defs
     id="defs6">
    <clipPath
       clipPathUnits="userSpaceOnUse"
       id="clipPath20">
      <path
         d="m 1750,8986.7 h 8500 V 3013.3 H 1750 Z"
         id="path18" />
    </clipPath>
  </defs>
  <sodipodi:namedview
     id="namedview4"
     pagecolor="#ffffff"
     bordercolor="#000000"
     borderopacity="0.25"
     inkscape:showpageshadow="2"
     inkscape:pageopacity="0.0"
     inkscape:pagecheckerboard="0"
     inkscape:deskcolor="#d1d1d1" />
  <g
     id="g8"
     inkscape:groupmode="layer"
     inkscape:label="ink_ext_XXXXXX"
     transform="matrix(1.3333333,0,0,-1.3333333,0,1600)">
    <g
       id="g10"
       transform="scale(0.1)">
      <path
         d="M 12000,0 H 0 V 12000 H 12000 V 0"
         style="fill:#faf9f8;fill-opacity:1;fill-rule:nonzero;stroke:none"
         id="path12" />
      <g
         id="g14">
        <g
           id="g16"
           clip-path="url(#clipPath20)">
          <path
             d="M 9462.35,7947.4 C 9070.16,8156.23 8066.75,8722.75 5616.67,8242.03 4283.13,7947.4 1740.02,6768.88 1802.06,4737.52 c 31,-573.74 604.73,-1829.78 3613.04,-1612.69 1333.59,139.56 3287.43,759.83 4326.37,2093.4 418.63,573.76 914.93,2093.38 -279.12,2729.17"
             style="fill:#ffffff;fill-opacity:1;fill-rule:nonzero;stroke:none"
             id="path22" />
          <path
             d="m 1864.09,4489.43 c 0,0 434.17,-1178.52 2884.24,-1240.55 2450.05,-62.04 5179.22,1488.64 5429.67,3254.56 -2.4,-323.8 28.7,-1285.23 -1878.65,-2510.24 -945.9,-620.26 -2698.17,-1007.93 -3737.1,-914.89 -1038.98,93.04 -2465.56,263.63 -2698.16,1411.12"
             style="fill:#9a9b99;fill-opacity:1;fill-rule:nonzero;stroke:none"
             id="path24" />
          <path
             d="M 10208,7043.91 C 9941.29,8412.48 7311.61,8847.37 5043.36,8109.89 2775.05,7372.39 1518.63,5890.14 1785.4,4521.62 2052.15,3153.16 4683.04,2509.79 7235.34,3470.68 9467.56,4311.04 10474.8,5675.48 10208,7043.91 m -30,-540.47 C 10102.9,5107.16 8641.11,4199.44 7950.45,3869.15 5263.01,2668.03 3331.8,3245.46 2821.33,3500.69 1214.86,4311.44 1916.8,5914.94 2577.38,6590.57 c 1046.7,953.66 1775.35,1324.15 3396.8,1699.49 1710.31,395.91 3348.07,-105.08 3828.48,-615.57 378.34,-402 375.34,-720.67 375.34,-1171.05"
             style="fill:#1b1918;fill-opacity:1;fill-rule:nonzero;stroke:none"
             id="path26" />
          <path
             d="M 7069.45,7993.94 C 4856.86,7699.31 4608.77,7590.75 3368.22,6753.39 2431.33,6038.17 1522.93,4396.38 3330.08,3875.69 c 1624.69,-468.14 3868.28,-99.58 5527.51,1249.5 408.42,419.22 1070.61,1413.65 686.26,1980.89 96.09,-493.22 72.06,-1060.44 -720.69,-1923.67 -288.31,-271.23 -2539.67,-2040.44 -5470.43,-1251.23 -528.51,172.64 -1920.32,866.77 -46.52,2667.14 1597.17,1411.11 3763.24,1395.62 3763.24,1395.62"
             style="fill:#1b1918;fill-opacity:1;fill-rule:nonzero;stroke:none"
             id="path28" />
        </g>
      </g>
      <path
         d="m 6994.46,7734.89 c -3.14,0.24 -6.31,0.42 -9.49,0.59 -26.43,1.18 -50.34,4.62 -72.18,9.74 25.1,-0.56 51.29,-1.97 78.41,-4.16 1.07,-2.07 2.16,-4.1 3.26,-6.17 M 5979.6,7136.32 v 0 c -49.38,0.7 -90.57,9.07 -126.11,21.94 26.86,20.56 53.56,40.91 79.96,60.94 14.42,-27.5 30.15,-55.27 46.15,-82.88 m 3677.64,-371.97 c -4.7,64.89 -16.63,127.56 -36.84,187.22 77.29,-10.52 136.35,-27.26 144.37,-60.62 7.54,-31.31 -40.1,-75.92 -107.53,-126.6 M 4966.72,3760.57 c -16.63,0 -32.63,0.03 -47.85,0.03 -221.69,0 -1058.81,51.56 -1225.1,155.07 -166.26,103.51 -403.33,233.51 -613.93,314.01 -210.61,80.5 -253.9,177.22 -364.76,384.21 -110.83,207.01 55.43,299.03 55.43,299.03 0,0 7.47,5.61 21.49,16.1 38.73,-79.44 64.39,-145.75 66.32,-189.74 2.76,-63.01 26.16,-150.4 188.24,-259.02 19.7,-14.84 39.68,-27.89 59.36,-39.17 17.75,-10.19 43.4,-23.28 75.2,-38.73 36.82,-18.77 77.83,-38.07 123.51,-57.87 118.07,-54.08 268.35,-120.69 415.89,-187.57 208.85,-101.06 377.28,-182.17 420.98,-214.04 11.89,-8.65 56.41,-18.16 121.12,-27 122.95,-37.01 235.41,-48.31 357.15,-48.31 86.46,0 177.64,5.7 280.52,11.95 108.76,6.61 178.24,13.8 228.9,27.5 42.68,8.88 75.04,20.61 92.83,35.63 128.96,108.88 388.75,269.77 642.21,389.33 196.94,92.9 432.59,201.27 437.27,352.92 l 0.79,1.75 c 39.68,94.62 391.58,367.95 581.71,471.27 167.4,90.92 246.06,119 324.41,220.81 72.03,20.56 126.27,45.98 138.48,75.75 32.06,78.06 311.46,376.7 499.3,514.89 166.78,13.25 374.86,48.59 401.68,108.5 30.52,68.2 268.24,309.71 449.92,446.76 6.14,-0.16 12.72,-0.23 19.68,-0.23 153.37,0 487.48,35.31 521.51,111.32 22.52,50.36 161.19,197.85 303.94,324.24 8.51,-0.74 16.93,-1.53 25.26,-2.37 10.3,-79.55 16.12,-161.52 15,-246.6 -122.9,-86.32 -265.86,-181.92 -283.96,-257.02 -33.26,-138.03 -576.38,-161.01 -565.31,-276.01 11.1,-115.02 -631.81,-391.02 -864.57,-483.04 -232.77,-91.99 -513.09,-279.37 -446.57,-313.87 66.5,-34.52 -167.71,-326.41 -500.23,-395.42 -332.55,-69.01 -566.73,-246.16 -500.23,-418.68 66.48,-172.5 55.4,-241.51 -166.26,-310.5 -221.69,-69.01 -395.1,-179.77 -561.36,-340.78 -154.87,-149.98 -501.95,-155.1 -727.97,-155.1"
         style="fill:#9a9b99;fill-opacity:1;fill-rule:nonzero;stroke:none"
         id="path30" />
      <path
         d="m 9583.18,6710.99 c 1.12,85.08 -4.7,167.05 -15,246.6 18.03,-1.79 35.54,-3.77 52.22,-6.02 20.21,-59.66 32.14,-122.33 36.84,-187.22 -22.89,-17.19 -48.01,-35.06 -74.06,-53.36"
         style="fill:#1b1918;fill-opacity:1;fill-rule:nonzero;stroke:none"
         id="path32" />
      <path
         d="m 10052.2,7606.38 c -26.7,32.73 -70.74,-30.79 -128.42,-94.34 -49.69,-54.68 -109.49,-109.37 -177.15,-102.67 -196.83,19.47 -468.74,77.25 -555.15,109.09 -62.98,23.21 -68.57,62.41 -133.67,79.34 -65.13,16.91 -198.36,24.77 -232.02,89.13 -33.71,64.25 -131.53,126.26 -197.29,129.28 -65.76,3.03 -183.78,24.1 -300.99,182.87 -117.2,158.84 -202.1,223.74 -398.74,246.67 -94.37,18.26 -206.11,136.7 -263.58,160.27 -57.5,23.54 -41.64,50.68 -32.08,99.11 9.51,48.38 -42.24,357.6 -98.13,416 -43.52,8.93 -65.76,3 -99.14,-86.18 -33.35,-89.13 -162.33,-187.87 -201.76,-248.81 -39.4,-60.99 -62.24,-241.27 -79.1,-289.33 -16.87,-48.06 -52.13,-178.99 -104.56,-204.48 -52.4,-25.45 -137.86,-133.12 -36.54,-319.13 101.32,-185.98 202.99,-364.99 206.48,-448.82 3.44,-83.88 48.57,-218.46 509.16,-392.96 257.68,-130.32 501.32,-246.06 550.87,-283.23 49.54,-37.13 786.54,-91.76 893.3,1 106.76,92.78 348.22,409.51 557.87,511.55 209.71,101.98 480.04,250.05 320.64,445.64"
         style="fill:#fcfab0;fill-opacity:1;fill-rule:nonzero;stroke:none"
         id="path34" />
      <path
         d="m 7185.31,7657.95 c -33.45,25.94 -71.5,47.94 -114.33,61.85 -3.76,6.61 -7.44,13.23 -11.04,19.91 -61.5,114.04 -67.25,201.41 -35.96,272.1 -16.94,-44.92 -20.77,-111.63 39.58,-192.04 41.2,-54.85 83.88,-108.39 121.75,-161.82 M 8914.92,6651.28 c 71.5,35.68 120.44,62.29 165.59,107.35 49.01,6.55 93.83,14.58 132.12,24 -3.82,-3.09 -7.59,-6.16 -11.26,-9.16 -115.28,-93.42 -177.34,-113.28 -286.45,-122.19"
         style="fill:#f8d165;fill-opacity:1;fill-rule:nonzero;stroke:none"
         id="path36" />
      <path
         d="m 7508.74,8908.36 c 63.66,17.08 -48.45,-339.5 -48.45,-339.5 0,0 47.96,-152.17 96.32,-175.29 69.08,-33.05 156.98,-116.79 245.39,-157.7 188.2,-87.09 434.66,-222.16 463.22,-317.62 10.4,-34.63 -24.61,-98.25 294.61,-161.68 67.39,-13.35 164.2,-12.74 232.35,-83.83 74.99,-78.31 191.64,-98.48 273.28,-148.51 101.46,-62.18 238.7,-113.91 274.47,-122.4 132.14,-31.51 360.48,-29.35 484.44,26.66 112.16,50.68 181.83,200.46 216.33,166.24 110.3,-109.67 -232.08,-270.17 -311.63,-329.27 -15.96,-11.86 -46.08,-10.26 -81.62,-8.65 -63.83,2.88 -145.05,5.77 -192.87,-69.5 -47.34,-74.53 -201.06,-87.2 -244.95,-124.33 -35.75,-30.12 -196.09,-22.3 -215.09,-59.89 -48.96,-96.76 -436.5,48.05 -640.42,151.51 -203.96,103.49 -137.25,121.4 -378.37,132.45 -241.11,11.02 -253.58,222.13 -557.59,298.77 -195.22,49.27 -98.62,33.05 -125.67,210.23 -22.59,147.44 -29.87,-27.27 -84.16,226.32 -21.74,101.46 -88.48,307.45 -27,451.1 61.5,143.65 202.25,259.28 327.41,434.89"
         style="fill:#f0a132;fill-opacity:1;fill-rule:nonzero;stroke:none"
         id="path38" />
      <path
         d="m 7577.31,8382.55 c -7.07,4.09 -13.98,7.79 -20.7,11.02 -24.63,11.75 -49.13,56.94 -67.27,98.51 30.89,-12.86 61.75,-57.15 87.97,-109.53"
         style="fill:#492d1d;fill-opacity:1;fill-rule:nonzero;stroke:none"
         id="path40" />
      <path
         d="m 8961.77,7092.69 c -78.67,0 -178.73,14.21 -292.52,32 -257.02,40.29 -358.51,129.26 -543.26,245 -79.46,49.78 -142.07,57.27 -196.2,57.27 -11.63,0 -22.89,-0.35 -33.82,-0.7 -10.93,-0.35 -21.56,-0.7 -31.96,-0.7 -43.28,0 -82.62,6 -124.04,42.94 -107.58,95.95 -136.91,136.65 -325.85,188.24 -188.97,51.62 -16.01,156.12 -81.86,280.03 -65.87,123.81 -23.19,116.16 60.32,213.18 83.5,96.99 -81.23,38.19 -108.46,172.77 -27.24,134.58 70.66,166.31 185.26,173.06 l 2.28,0.07 c 5.89,0 11.77,-1.31 17.68,-3.77 18.14,-41.57 42.64,-86.76 67.27,-98.51 6.72,-3.23 13.63,-6.93 20.7,-11.02 31.52,-62.97 56.34,-137.61 66.36,-183.39 20.17,-92.06 -26.7,-148.49 7.63,-284.37 34.35,-135.86 107.44,-178.45 246.58,-221.14 139.14,-42.65 233.64,-47.84 282.26,-145.07 42.52,-84.99 323.01,-190.15 451.1,-190.15 18.33,0 33.55,2.16 44.5,6.82 87.5,37.38 -12.03,96.48 -108.42,172.8 -96.43,76.26 -168.03,78.45 -501.16,185.45 -333.13,106.97 -179.68,103.02 -255.74,211.01 -76.04,107.95 -133.72,236.3 -96.04,282.56 6.79,8.36 16.54,11.94 28.65,11.94 55.06,0 158.78,-74.48 253.68,-115.7 115.74,-50.26 187.76,-139.84 217.11,-221.78 29.31,-81.88 199.43,-107.67 358.9,-159.92 159.49,-52.21 362.46,-188.89 502.6,-267.11 140.1,-78.2 95.23,-164.5 66.57,-283.19 -8.93,-36.94 -33.19,-60.27 -70.15,-73.67 l -1.4,0.03 c -8.95,0 -17.95,-2.49 -26.77,-7.89 -23.72,-4.93 -51.15,-7.09 -81.8,-7.09"
         style="fill:#47241c;fill-opacity:1;fill-rule:nonzero;stroke:none"
         id="path42" />
      <path
         d="m 10003.5,7622.55 c -80.09,-69.57 -159.46,-243.77 -349.07,-188.03 -229.23,67.4 -431.71,45.89 -493.7,132.41 -61.91,86.55 -266.84,48.83 -286.37,102.02 -19.54,53.2 -141.05,158.15 -239.67,162.66 -98.65,4.51 -222.07,67.69 -273.05,153.73 -50.97,86.03 -164.13,253.37 -350.44,261.88 -186.34,8.51 -244.6,130.47 -332.59,172.12 -134.4,63.69 20.97,98.44 -58.11,290.36 0,0 13.73,60.4 -37.26,146.42 -50.96,86.02 36.33,193.64 -89.48,84.32 -125.84,-109.35 30.72,-48.5 -227.44,-289.54 -139.16,-129.93 -129.6,-192.85 -148.68,-369.81 -19.09,-177.01 -206.34,-189.34 -192.08,-357.39 14.28,-168.01 233.93,-408.24 238.7,-544.47 4.77,-136.21 98.13,-255.56 280.14,-358.05 182.08,-102.48 698.1,-345.78 793.89,-412.91 95.76,-67.15 314.94,-77.22 446.5,-83.22 131.51,-5.96 517.49,28.68 554.19,110.67 36.7,82.06 381.72,421.96 550.42,508.42 168.71,86.43 235.4,104.32 317.9,226.08 82.4,121.75 -23.7,321.92 -103.8,252.33 m -165.02,-365.6 c -168.19,-75.99 -466.06,-344.81 -637.11,-483.48 -171.1,-138.66 -224.95,-115.26 -489.41,-134.59 -264.49,-19.28 -362.19,6.12 -447.46,62.36 -85.32,56.22 -451.24,219.37 -677.59,313.43 -226.34,94.04 -331.66,193.01 -325.94,318.31 5.77,125.28 -120.02,256.56 -201.03,406.73 -80.99,150.17 -65.27,254.09 4.3,334.59 69.57,80.51 116.76,151.59 135.35,318.11 18.63,166.59 143,244.55 212.11,314.64 69.08,70.08 73.87,174.47 106.27,162.49 32.38,-11.88 98.62,-245.09 73.36,-317.15 -25.26,-72.08 -49.59,-123.3 68.57,-181.01 118.21,-57.73 147.75,-132.3 245.89,-147.28 98.15,-14.93 241.6,-0.54 344.55,-151.75 102.9,-151.14 154.84,-216.29 284.42,-264.09 129.63,-47.76 198.71,22.3 269.23,-116.91 70.53,-139.21 259.7,-85.11 290.2,-138.84 30.49,-53.68 182.96,-81.59 466.03,-136.37 283.06,-54.78 296.38,-3.07 387.89,76.43 91.49,79.53 104.39,120.77 122.49,36.22 16.7,-115.81 -63.9,-195.83 -232.12,-271.84"
         style="fill:#1b1918;fill-opacity:1;fill-rule:nonzero;stroke:none"
         id="path44" />
      <path
         d="m 9382.8,7378.95 c -20.17,-29.01 77.5,-66.29 77.5,-66.29 0,0 -7.3,0.32 -33.03,-82.18 -25.75,-82.51 -84.2,-79.83 -25.75,-82.51 58.45,-2.67 97.21,44.34 172.2,82.76 74.99,38.45 244.95,72.48 114.69,106.33 -130.26,33.89 -282.1,75.68 -305.61,41.89"
         style="fill:#492d1d;fill-opacity:1;fill-rule:nonzero;stroke:none"
         id="path46" />
      <path
         d="m 9084.32,7076.31 c -27.42,33.66 -72.68,-31.7 -132.04,-97.04 -51.11,-56.27 -112.63,-112.53 -182.22,-105.62 -202.43,20.02 -482.16,79.45 -571.01,112.2 -64.78,23.87 -70.53,64.2 -137.51,81.62 -66.99,17.4 -204.06,25.49 -238.7,91.65 -34.61,66.12 -135.28,129.9 -202.94,133.02 -67.62,3.12 -189.01,24.77 -309.55,188.1 -120.6,163.34 -207.92,230.12 -410.19,253.72 -97.04,18.8 -211.97,140.61 -271.12,164.85 -59.15,24.21 -42.84,52.15 -33,101.95 9.79,49.77 -43.41,367.85 -100.93,427.89 -44.77,9.21 -67.64,3.09 -101.97,-88.6 -34.31,-91.74 -166.98,-193.27 -207.52,-255.95 -40.55,-62.73 -64.06,-248.19 -81.39,-297.61 -17.33,-49.43 -53.61,-184.11 -107.56,-210.32 -53.89,-26.22 -141.79,-136.96 -37.59,-328.27 104.23,-191.31 208.81,-375.44 212.39,-461.71 3.56,-86.23 49.97,-224.67 523.75,-404.17 265.05,-134.07 515.65,-253.11 566.64,-291.33 50.96,-38.22 809.07,-94.41 918.88,1.02 109.79,95.39 358.16,421.24 573.85,526.19 215.67,104.91 493.76,257.19 329.73,458.41"
         style="fill:#fcfab0;fill-opacity:1;fill-rule:nonzero;stroke:none"
         id="path48" />
      <path
         d="m 6172.22,7074.85 c -33.94,22.21 -71.76,40.28 -113.49,50.96 -18.26,28.54 -36.12,57.73 -52.26,87.62 -63.27,117.3 -69.16,207.2 -36.99,279.93 -17.42,-46.21 -21.37,-114.83 40.73,-197.59 56.36,-75.04 115.42,-147.7 162.01,-220.92"
         style="fill:#f8d165;fill-opacity:1;fill-rule:nonzero;stroke:none"
         id="path50" />
      <path
         d="m 6468.13,8415.53 c 65.48,17.56 -49.85,-349.23 -49.85,-349.23 0,0 49.32,-156.51 99.09,-180.31 71.06,-33.98 161.45,-120.11 252.42,-162.19 193.59,-89.57 447.06,-228.53 476.5,-326.69 10.66,-35.65 -25.35,-101.06 303.04,-166.35 69.26,-13.73 168.86,-13.1 238.95,-86.23 77.17,-80.55 197.13,-101.27 281.12,-152.77 104.36,-63.94 245.53,-117.11 282.3,-125.86 135.96,-32.42 370.81,-30.21 498.33,27.4 115.37,52.15 187.05,206.2 222.46,170.99 113.46,-112.84 -238.65,-277.87 -320.51,-338.67 -16.39,-12.19 -47.38,-10.54 -83.89,-8.89 -65.67,2.98 -149.26,5.94 -198.43,-71.5 -48.69,-76.64 -206.81,-89.71 -251.98,-127.88 -36.77,-31.03 -201.66,-22.93 -221.22,-61.62 -50.36,-99.53 -448.99,49.43 -658.75,155.87 -209.81,106.44 -141.17,124.84 -389.19,136.21 -248.02,11.33 -260.88,228.48 -573.59,307.33 -200.78,50.66 -101.39,33.99 -129.26,216.21 -23.19,151.72 -30.7,-28.01 -86.55,232.83 -22.35,104.37 -90.99,316.26 -27.77,464.01 63.24,147.77 208.04,266.7 336.78,447.34"
         style="fill:#f0a132;fill-opacity:1;fill-rule:nonzero;stroke:none"
         id="path52" />
      <path
         d="m 6538.65,7874.66 c -7.25,4.21 -14.37,8.03 -21.28,11.33 -25.33,12.12 -50.54,58.62 -69.2,101.35 31.78,-13.24 63.53,-58.81 90.48,-112.68 m 881.21,-613.2 c -136.42,39.33 -161.61,76.97 -168.5,106.16 40.39,-37.64 100.53,-74.27 168.5,-106.16"
         style="fill:#492d1d;fill-opacity:1;fill-rule:nonzero;stroke:none"
         id="path54" />
      <path
         d="m 6637.37,7480.45 c -12.21,-91.15 -41.87,-165.89 60.55,-197.29 143.14,-43.89 240.37,-49.22 290.35,-149.21 43.73,-87.41 332.2,-195.59 463.99,-195.59 18.87,0 34.54,2.23 45.8,7.04 89.97,38.41 -12.37,99.21 -111.55,177.71 -99.18,78.43 -162.03,64.17 -504.7,174.26 -303.33,97.44 -214.57,105.46 -244.44,183.08 m 1239.32,-852.01 c -80.46,0 -184.66,15.77 -305.29,34.66 -264.37,41.42 -278.31,50.68 -468.34,169.72 -81.76,51.2 -146.17,58.9 -201.83,58.9 -11.98,0 -23.56,-0.35 -34.79,-0.7 -11.26,-0.37 -22.19,-0.72 -32.9,-0.72 -44.51,0 -84.96,6.16 -127.55,44.15 -110.65,98.67 -33.15,212.27 -227.51,265.35 -194.33,53.12 -124.16,88.87 -191.89,216.32 -67.74,127.39 -23.85,119.51 62.03,219.27 85.88,99.78 -83.55,39.28 -111.55,177.71 -28.01,138.46 72.66,171.1 190.57,178.05 l 2.35,0.07 c 6.04,0 12.11,-1.35 18.18,-3.88 18.66,-42.73 43.87,-89.23 69.2,-101.35 6.91,-3.3 14.03,-7.12 21.28,-11.33 32.43,-64.75 57.95,-141.51 68.27,-188.61 8.77,-40.12 39.34,-58.45 74.3,-76.92 l 3.74,5.58 c 14.84,18.24 43.29,26.21 79.46,26.21 58.31,0 136.65,-20.74 210.15,-52.68 119.07,-51.71 198.62,-70.59 228.79,-154.89 7.79,-21.75 24.56,-43.91 48,-65.73 6.89,-29.19 32.08,-66.83 168.5,-106.16 45.29,-21.26 94.04,-40.43 142.7,-56.36 164.03,-53.71 372.86,-194.31 516.95,-274.77 144.13,-80.46 0.77,-91.04 -28.65,-213.08 -16.05,-66.39 -78.25,-88.81 -174.17,-88.81"
         style="fill:#47241c;fill-opacity:1;fill-rule:nonzero;stroke:none"
         id="path56" />
      <path
         d="m 9034.27,7092.92 c -82.37,-71.57 -164.01,-250.74 -359.06,-193.41 -235.79,69.32 -444.06,47.2 -507.8,136.21 -63.73,89.02 -274.49,50.22 -294.61,104.93 -20.07,54.73 -145.05,162.7 -246.51,167.33 -101.46,4.65 -228.41,69.62 -280.84,158.1 -52.45,88.5 -168.84,260.65 -360.48,269.4 -191.69,8.74 -251.63,134.16 -342.11,177.05 -138.23,65.5 21.56,101.25 -59.8,298.68 0,0 14.14,62.13 -38.29,150.59 -52.43,88.5 37.33,199.2 -92.08,86.74 -129.4,-112.47 31.63,-49.9 -233.91,-297.83 -143.16,-133.65 -133.32,-198.36 -152.95,-380.39 -19.64,-182.08 -212.25,-194.76 -197.58,-367.6 14.71,-172.87 240.63,-419.96 245.51,-560.06 4.91,-140.14 100.95,-262.88 288.2,-368.29 187.26,-105.4 718.06,-355.7 816.58,-424.76 98.54,-69.08 323.97,-79.41 459.3,-85.59 135.26,-6.14 532.28,29.51 570.03,113.85 37.75,84.39 392.65,434.01 566.2,522.91 173.54,88.95 242.13,107.32 326.96,232.6 84.79,125.24 -24.4,331.13 -106.76,259.54 m -169.73,-376.05 c -173.01,-78.2 -479.39,-354.71 -655.37,-497.32 -175.99,-142.61 -231.37,-118.56 -503.4,-138.42 -272.05,-19.86 -372.53,6.26 -460.24,64.11 -87.76,57.82 -464.18,225.69 -696.99,322.4 -232.83,96.74 -341.15,198.55 -335.27,327.41 5.91,128.88 -123.49,263.91 -206.8,418.38 -83.32,154.47 -67.13,261.37 4.44,344.18 71.57,82.8 120.11,155.91 139.23,327.2 19.12,171.33 147.08,251.58 218.16,323.64 71.06,72.08 75.97,179.47 109.3,167.19 33.33,-12.28 101.46,-252.14 75.48,-326.27 -25.99,-74.15 -51.01,-126.86 70.55,-186.17 121.58,-59.41 151.95,-136.12 252.9,-151.52 100.97,-15.35 248.53,-0.53 354.41,-156.07 105.84,-155.45 159.27,-222.49 292.57,-271.68 133.32,-49.13 204.41,22.98 276.93,-120.25 72.55,-143.22 267.12,-87.53 298.52,-142.77 31.35,-55.25 188.2,-83.95 479.37,-140.29 291.12,-56.35 304.87,-3.18 398.97,78.6 94.14,81.81 107.35,124.21 125.98,37.26 17.17,-119.11 -65.68,-201.43 -238.74,-279.61"
         style="fill:#1b1918;fill-opacity:1;fill-rule:nonzero;stroke:none"
         id="path58" />
      <path
         d="m 8118.27,6874.2 c -20.73,-29.84 79.73,-68.19 79.73,-68.19 0,0 -7.51,0.32 -33.98,-84.55 -26.49,-84.88 -183.5,-141.15 -123.37,-143.89 60.12,-2.77 252.93,38.1 330.08,77.62 77.11,39.52 415.63,109.3 281.63,144.12 -133.97,34.84 -509.9,109.67 -534.09,74.89"
         style="fill:#492d1d;fill-opacity:1;fill-rule:nonzero;stroke:none"
         id="path60" />
      <path
         d="m 8183.77,6519.88 c -29.8,34.27 -74.97,-35.96 -134.93,-106.15 -51.13,-59.85 -113,-119.7 -185.2,-114.84 -211.09,14.17 -503.81,66.8 -597.32,97.93 -68.15,22.67 -75.38,64.45 -145.6,80.34 -70.2,15.93 -213,19.79 -251.14,87.45 -38.2,67.62 -144.91,130.63 -215.35,131.61 -70.43,1.02 -197.33,19.61 -328.03,185.43 -130.7,165.84 -223.65,232.46 -434.71,250.32 -101.53,16.33 -224.97,139.26 -287.28,162.5 -62.27,23.26 -46.22,52.77 -37.64,104.85 8.54,52.1 -57.19,381.02 -118.95,441.55 -46.84,8.11 -70.45,1.04 -103.11,-95.46 -32.66,-96.46 -167.26,-206.34 -207.34,-272.91 -40.1,-66.55 -58.48,-260.07 -74.88,-312.03 -16.39,-51.97 -49.68,-193.16 -104.87,-222.18 -55.2,-29.01 -142.94,-147.05 -28.34,-342.53 114.63,-195.45 229.37,-383.44 235.93,-472.99 6.56,-89.53 59.34,-231.95 557.8,-403.03 279.89,-130.65 544.33,-246.25 598.57,-284.26 54.25,-38.08 844.23,-71.62 955.27,31.19 111.02,102.81 358.55,449.66 579.31,565.82 220.79,116.16 504.91,283.61 327.81,487.39"
         style="fill:#fcfab0;fill-opacity:1;fill-rule:nonzero;stroke:none"
         id="path62" />
      <path
         d="m 5248.4,6227.13 c -37.24,56.53 -94.16,131.63 -171.57,187.43 -33.17,47.15 -67.73,95.93 -97.36,146.96 -69.67,119.91 -78.72,213.18 -47.59,289.84 -16.63,-48.61 -18.54,-120.11 48.8,-204.13 113.25,-141.3 236.02,-273.88 267.72,-420.1 m 812.12,-419.33 c -32.72,5.65 -66.73,8.49 -97.43,11.7 11.88,2.33 23.44,3.84 35.19,3.84 19.37,0 39.33,-4.12 62.24,-15.54 m 1209.13,-234.41 c -1.98,8.53 -4.56,16.68 -7.68,24.31 18.31,4.13 35.61,8.46 51.83,13 -4.01,-3.47 -7.91,-6.89 -11.8,-10.24 -11.23,-9.7 -21.98,-18.7 -32.35,-27.07 M 6813.1,5462.65 c -6.4,0 -12.89,0.16 -19.42,0.51 -90.99,12.91 -188.62,49.26 -278.4,89.67 3.68,-0.33 7.44,-0.65 11.26,-0.98 56.29,-4.93 119.09,-7.28 184.63,-7.28 34.99,0 70.76,0.65 106.79,1.95 60.78,-18.75 99.63,-36.59 129.16,-47.01 -10.07,-5.62 -20.39,-11.02 -31,-16.14 -30.7,-14.75 -65.6,-20.72 -103.02,-20.72"
         style="fill:#f8d165;fill-opacity:1;fill-rule:nonzero;stroke:none"
         id="path64" />
      <path
         d="m 5419.99,7826.4 c 67.52,20.38 -40.38,-364.74 -40.38,-364.74 0,0 56.43,-161.08 108.9,-184.2 74.97,-33 171.82,-119.6 267.77,-160.35 204.23,-86.74 472.3,-222.86 506.09,-324.01 12.26,-36.68 -23.02,-105.88 320.5,-162.94 72.48,-12.05 175.97,-8.12 251.23,-81.85 82.88,-81.2 208.25,-98.83 297.25,-149.59 110.62,-63.05 259.13,-113.72 297.61,-121.62 142.42,-29.22 386.53,-19.24 517.2,44.84 118.21,58.01 187.69,220.53 225.67,185.08 121.65,-113.55 -239.02,-296.7 -322.12,-362.6 -16.45,-13.05 -48.08,-12.54 -85.46,-12 -68.57,0.93 -156.47,1.88 -205.41,-80.83 -48.1,-81.29 -212.06,-100.09 -257.77,-141.19 -37.19,-33.49 -208.87,-30.49 -227.97,-71.36 -49.1,-105.09 -468.36,36.68 -689.96,140.42 -221.58,103.83 -150.82,125.21 -409.05,128.86 -258.21,3.65 -278.7,229.02 -606.37,300.73 -210.38,46.05 -106.53,32.01 -141.47,220.53 -29.09,156.96 -31.02,-30.1 -97.64,239.2 -26.66,107.79 -104.97,325.81 -44.05,481.49 60.89,155.7 207.5,284.09 335.43,476.13"
         style="fill:#f0a132;fill-opacity:1;fill-rule:nonzero;stroke:none"
         id="path66" />
      <path
         d="m 5511.05,7266.37 c -7.7,4.14 -15.21,7.88 -22.54,11.09 -26.7,11.77 -54.45,59.27 -75.24,103.09 33.47,-12.72 67.98,-59.03 97.78,-114.18 m 682.96,-389 c -52.43,44.03 -128.39,90.01 -210.59,133.07 11,-2.03 23.09,-5.49 36.44,-10.79 99.3,-39.45 143.22,-68.83 174.15,-122.28 m 253.19,-219.55 c -143.07,36.4 -170.48,74.71 -178.59,104.83 43.21,-37.8 106.92,-73.9 178.59,-104.83"
         style="fill:#492d1d;fill-opacity:1;fill-rule:nonzero;stroke:none"
         id="path68" />
      <path
         d="m 6827.61,5951.64 c -35.26,0 -70.94,2.07 -106.43,6.49 -276.22,34.38 -387.75,126.12 -589.23,243.65 -78.33,45.71 -140.74,54.92 -194.77,54.92 -18.24,0 -35.52,-1.07 -52.13,-2.12 -16.61,-1.05 -32.52,-2.09 -48.08,-2.09 -41.29,0 -79.88,7.42 -121.11,41.91 -118.28,99 -151.08,141.49 -354.86,190.36 -203.78,48.82 -22.35,166.4 -96.97,296.66 -74.59,130.23 -28.7,123.42 57.31,230 85.99,106.55 -88.15,38.12 -121.81,181.1 -33.66,143 69.94,180.24 192.24,191.31 1.28,0.12 2.54,0.19 3.82,0.19 5.84,0 11.74,-1.21 17.68,-3.47 20.79,-43.82 48.54,-91.32 75.24,-103.09 7.33,-3.21 14.84,-6.95 22.54,-11.09 35.82,-66.25 64.87,-145.24 77.16,-193.83 24.65,-97.78 -23.54,-159.7 17.74,-303.82 41.29,-144.14 120.93,-187.24 271.17,-228.18 150.21,-40.94 251.46,-43.31 306.7,-145.56 47.36,-87.67 339.62,-188.31 480.28,-188.31 23.47,0 42.7,2.79 55.89,8.93 92.27,42.89 -209.29,130.11 -314.96,208.48 -105.67,78.31 19.16,117.46 -340.72,220.66 -86.9,24.92 -144.77,33.34 -183.77,33.34 -40.38,0 -60.53,-9.03 -71.69,-18.03 -11.16,-9 -13.35,-18.03 -17.84,-18.03 -4.63,0 -11.73,9.63 -33.68,38.82 -70.25,93.37 -99.3,330.27 -4.42,330.27 19.84,0 45.12,-10.35 76.55,-34.54 7.77,-5.98 14.68,-8.42 21.28,-8.42 14.12,0 26.77,11.14 43.2,22.28 16.42,11.12 36.63,22.26 65.84,22.26 7.28,0 15.15,-0.69 23.64,-2.25 82.2,-43.06 158.16,-89.04 210.59,-133.07 8.14,-14.1 15.4,-29.87 22.52,-47.94 8.81,-22.35 27,-44.87 52.08,-66.78 8.11,-30.12 35.52,-68.43 178.59,-104.83 47.8,-20.63 99.13,-38.96 150.26,-53.94 172.33,-50.45 393.98,-189.78 546.47,-268.68 152.47,-78.92 192.2,-48.66 165.56,-176.54 -23.21,-111.42 -242.95,-207.02 -481.88,-207.02"
         style="fill:#47241c;fill-opacity:1;fill-rule:nonzero;stroke:none"
         id="path70" />
      <path
         d="m 8131.15,6535.56 c -83.27,-77.13 -162.26,-266.12 -366.97,-212.87 -247.37,64.33 -463.2,34.51 -532.33,124.95 -69.17,90.43 -287.03,43.22 -309.71,99.44 -22.67,56.24 -156.16,164.35 -261.81,165.84 -105.63,1.49 -239.72,64.92 -297.12,155.17 -57.46,90.27 -184.08,265.39 -383.61,268.23 -199.52,2.82 -265.98,131.21 -361.48,172.85 -145.84,63.54 19.12,105.95 -71.95,308.52 0,0 12.66,65.03 -44.75,155.35 -57.43,90.27 32.29,208.27 -98.55,87.13 -130.84,-121.18 34.49,-50.82 -233.41,-317.29 -144.45,-143.67 -132.12,-210.59 -146.54,-400.46 -14.42,-189.95 -214.3,-209.44 -193.36,-388.68 20.95,-179.19 263.95,-428.66 273.63,-574.15 9.67,-145.54 113.58,-270 311.68,-373.49 198.11,-103.41 758.18,-346.17 862.85,-414.79 104.68,-68.55 339.41,-71.88 480.28,-73.88 140.84,-1.95 552.42,48.11 588.89,137.05 36.5,88.93 393.98,464.06 571.46,562.22 177.47,98.16 248.21,119.49 332.29,252.49 84.06,133.02 -36.22,343.43 -119.49,266.37 m -164.1,-396.51 c -177.33,-86.99 -486.76,-384.54 -665.05,-538.59 -178.26,-154.03 -236.64,-130.83 -518.79,-160.37 -282.14,-29.57 -387.49,-5.68 -480.57,51.56 -93.14,57.22 -489.98,219.39 -735.21,312.31 -245.18,92.95 -361.16,195.23 -359.25,329.41 1.91,134.12 -137.04,270.28 -228.71,428.15 -91.69,157.84 -78.37,269.51 -6.66,357.93 71.67,88.45 119.72,166.03 133.98,344.78 14.28,178.68 144.68,266.3 216.18,343.57 71.55,77.27 73.13,189.08 108.18,177.38 35.06,-11.65 113.75,-258.79 89.16,-336.71 -24.59,-77.94 -48.85,-133.49 79.48,-191.22 128.3,-57.75 162.38,-136.51 267.88,-149.19 105.44,-12.65 258.38,7.51 373.54,-150.65 115.13,-158.17 172.86,-226.09 313.08,-272.82 140.21,-46.71 211.75,30.54 291.86,-115.95 80.09,-146.52 280.57,-82.25 314.99,-138.66 34.4,-56.4 198.43,-81.08 502.97,-130.11 304.53,-49.08 317.06,6.7 412.22,94.78 95.13,88.14 107.51,132.65 129.72,42.92 21.75,-123.33 -61.71,-211.6 -239,-298.52"
         style="fill:#1b1918;fill-opacity:1;fill-rule:nonzero;stroke:none"
         id="path72" />
      <path
         d="m 7475.62,6254.12 c -20.59,-31.68 85.13,-68.3 85.13,-68.3 0,0 -7.86,0.1 -32.57,-89.04 -24.74,-89.08 -87.36,-88.2 -24.74,-89.08 62.59,-0.88 102.45,50.71 181.33,94.34 78.88,43.59 259.49,85.76 119.09,117.6 -140.47,31.8 -304.26,71.41 -328.24,34.48"
         style="fill:#492d1d;fill-opacity:1;fill-rule:nonzero;stroke:none"
         id="path74" />
      <path
         d="m 7185.14,5625.03 c -32,37.4 -86.03,-19.85 -155.93,-77.06 -57.52,-47.11 -125.79,-94.18 -201.32,-88.56 -225.13,16.82 -504.55,199.34 -604.04,233.33 -72.5,24.77 -79.92,69.38 -154.72,86.87 -74.76,17.54 -227.06,22.82 -267.26,95.27 -40.17,72.48 -153.56,140.54 -228.69,142.19 -75.11,1.63 -210.37,22.47 -348.48,200.46 -138.14,177.98 -236.81,249.76 -461.85,270.56 -108.19,18.23 -238.93,150.35 -305.22,175.61 -66.22,25.31 -48.87,56.73 -39.31,112.21 9.54,55.5 -57.99,406.98 -123.4,472.08 -49.91,9 -75.15,1.63 -110.78,-101.04 -35.61,-102.67 -180.1,-218.85 -223.41,-289.54 -43.27,-70.64 -64.44,-277.07 -82.35,-332.31 -17.91,-55.32 -54.56,-205.67 -113.69,-236.21 -59.1,-30.54 -153.68,-155.77 -32.98,-365.23 120.79,-209.46 241.72,-410.96 247.97,-506.56 6.26,-95.59 61.46,-247.95 591.9,-434.42 297.61,-141.68 578.83,-267.07 636.42,-308.11 57.56,-41.07 900.18,-83.15 1019.44,25.64 119.27,108.78 353.64,352.87 590.13,475.06 236.48,122.14 554.93,230.93 367.57,449.76"
         style="fill:#fcfab0;fill-opacity:1;fill-rule:nonzero;stroke:none"
         id="path76" />
      <path
         d="m 3962.84,5751.98 c -36.66,19.65 -76.71,34.94 -122.53,46.68 -19.21,28.73 -37.94,58.03 -55.08,88.06 -73.36,128.47 -82.27,228.02 -48.5,309.57 -18.09,-51.73 -20.68,-127.98 50.45,-218.13 60.59,-76.76 123.79,-151.14 175.66,-226.18 m 2276.9,-922.49 c -5.63,6.02 -11.56,10.14 -17.86,12.65 16.33,3.67 31.91,7.51 46.61,11.54 -4.35,-3.65 -8.65,-7.28 -12.91,-10.91 -5.39,-4.58 -10.65,-9 -15.84,-13.28 m -306.63,-76.11 c -8.68,0 -17.54,0.42 -26.64,1.3 -55.98,5.47 -116.6,17.87 -177.94,34.15 146.56,3.74 297.82,17.35 421.17,38.98 -16.37,-8.16 -34.31,-18.3 -53.96,-28.47 -44.52,-22.98 -98,-45.96 -162.63,-45.96"
         style="fill:#f8d165;fill-opacity:1;fill-rule:nonzero;stroke:none"
         id="path78" />
      <path
         d="m 4265.34,7232.71 c 72.17,21.21 -45.99,-388.81 -45.99,-388.81 0,0 58.88,-172.31 114.74,-197.41 79.72,-35.75 182.34,-128.95 284.36,-173.17 217.2,-94.21 502.14,-241.58 537.4,-349.76 12.77,-39.29 -25.43,-112.79 340.66,-176.43 77.25,-13.4 187.69,-10.02 267.4,-89.27 87.76,-87.34 221.44,-107.21 315.94,-162.03 117.54,-68.15 275.59,-123.4 316.59,-132.12 151.73,-32.31 379.72,-147.65 519.68,-80.34 126.58,60.92 215.97,166.17 256.18,128.03 128.91,-122.12 -271.32,-247.03 -360.5,-316.69 -20.84,-16.26 -58.48,9.3 -101.21,34.89 -59.85,35.82 -129.72,71.66 -177.38,-7.54 -51.98,-86.34 -227.04,-105.08 -276.16,-148.63 -39.94,-35.38 -223.09,-30.84 -243.79,-74.27 -53.22,-111.76 -499.44,42.85 -735.02,155.33 -235.58,112.54 -159.93,134.77 -435.43,140.75 -275.46,5.93 -295.52,246.58 -644.58,325.69 -224.11,50.82 -113.39,34.98 -149.16,236.41 -29.8,167.71 -33.34,-31.89 -102.25,256 -27.61,115.18 -109.42,348.48 -43.2,514.09 66.22,165.62 223.67,301.45 361.72,505.28"
         style="fill:#f0a132;fill-opacity:1;fill-rule:nonzero;stroke:none"
         id="path80" />
      <path
         d="m 4358.05,6634.49 c -8.18,4.49 -16.19,8.51 -23.96,12 -28.44,12.77 -57.66,63.71 -79.5,110.62 35.64,-13.84 72.11,-63.54 103.46,-122.62 m 723.81,-419.01 c -85.58,72.39 -229.25,149.98 -365.4,213.67 8.75,0.65 17.57,0.97 26.41,0.97 37.26,0 75.1,-5.95 110.53,-20.35 108.34,-44.01 184.52,-118.3 228.46,-194.29 m 270.35,-237.81 c -152.63,40.03 -181.57,81.15 -189.97,113.37 45.85,-40.71 113.65,-79.78 189.97,-113.37"
         style="fill:#492d1d;fill-opacity:1;fill-rule:nonzero;stroke:none"
         id="path82" />
      <path
         d="m 5953.87,5200.3 c -86.61,0 -194.1,12.74 -315.17,28.72 -294.42,38.92 -412.7,137.7 -626.74,264.68 -85.08,50.5 -152.72,60.15 -211.27,60.15 -18.09,0 -35.33,-0.93 -51.94,-1.86 -16.61,-0.91 -32.59,-1.84 -48.17,-1.84 -45.17,0 -87.13,7.75 -131.82,45.73 -125.39,106.51 -160.02,152.12 -377.06,205.85 -217.04,53.73 -22.54,177.73 -101.11,317.29 -78.53,139.56 -29.66,131.96 62.98,244.95 92.62,113 -93.73,41.38 -128.51,194.2 -34.77,152.87 76.04,191.76 206.64,202.62 1.26,0.11 2.47,0.16 3.72,0.16 6.33,0 12.75,-1.32 19.17,-3.84 21.84,-46.91 51.06,-97.85 79.5,-110.62 7.77,-3.49 15.78,-7.51 23.96,-12 37.71,-70.97 68.04,-155.47 80.74,-207.41 25.54,-104.51 -26.38,-170.24 16.53,-324.32 42.87,-154.12 127.47,-200.73 287.43,-245.62 160.01,-44.87 268,-48.2 326.15,-157.78 50.08,-94.36 364.07,-204.71 513.21,-204.71 23.98,0 43.73,2.84 57.41,9.07 98.78,45.06 -16.38,109.77 -128.51,194.25 -112.12,84.41 -184.5,155.91 -567.64,268.84 -103,30.4 -166.94,39.89 -207.13,39.89 -33.52,0 -50.52,-6.61 -59.88,-13.21 -9.35,-6.61 -11.04,-13.21 -13.97,-13.21 -3.7,0 -9.33,10.51 -34.71,44.77 -89.74,121.07 -159.12,265.91 -117.39,319.73 28.05,36.22 112.97,77.55 206.17,84.37 136.15,-63.69 279.82,-141.28 365.4,-213.67 10.21,-17.63 18.67,-35.35 25.4,-52.82 9.21,-23.91 28.4,-48.03 54.98,-71.62 8.4,-32.22 37.34,-73.34 189.97,-113.37 50.78,-22.35 105.32,-42.29 159.66,-58.64 183.45,-55.22 418.84,-205.69 580.89,-291.05 162.05,-85.46 113.21,-185.17 83.78,-321.34 -17.35,-80.22 -98.64,-106.34 -222.67,-106.34"
         style="fill:#47241c;fill-opacity:1;fill-rule:nonzero;stroke:none"
         id="path84" />
      <path
         d="m 7129.16,5642.12 c -89.48,-81.52 -156.73,-90.9 -374.7,-32.47 -263.44,70.62 -493.93,40.52 -567.01,137.56 -73.03,97.04 -305.87,48.38 -329.64,108.58 -23.75,60.17 -165.26,176.59 -277.98,179.03 -112.65,2.44 -255.25,71.15 -315.8,167.94 -60.52,96.78 -194.27,284.63 -407.14,289.24 -212.86,4.62 -282.73,142.16 -384.28,187.33 -155.12,68.97 21.24,112.86 -74.32,329.71 0,0 14.03,69.34 -46.52,166.13 -60.54,96.76 36.13,221.97 -104.44,93.76 -140.6,-128.24 36.41,-54.52 -251.55,-336.67 -155.29,-152.17 -142.65,-223.67 -159.59,-426.15 -16.89,-202.5 -230.27,-221.71 -209.39,-413.12 20.96,-191.36 278.2,-459.5 287.36,-614.78 9.16,-155.33 119.02,-288.98 329.59,-400.96 210.58,-111.93 806.15,-375.39 917.29,-449.43 111.15,-74.03 361.57,-79.41 511.83,-82.69 150.24,-3.21 589.81,46.94 629.42,141.52 39.68,94.62 391.58,367.95 581.71,471.27 190.15,103.3 265.79,125.49 356.55,266.74 90.74,141.22 -21.98,299.08 -111.39,217.46 m -192.25,-354.11 c -189.89,-91.34 -489.9,-282.28 -681.33,-445.24 -191.43,-162.89 -253.51,-137.68 -554.8,-166.94 -301.31,-29.31 -413.49,-2.98 -512.37,58.8 -98.9,61.8 -521,237.97 -781.88,339.11 -260.89,101.13 -383.79,211.18 -380.7,354.3 3.12,143.16 -144.07,289.51 -240.6,458.68 -96.58,169.13 -81.46,288.15 -4.28,381.93 77.2,93.79 129.09,176.2 145.74,366.79 16.66,190.57 156.48,282.98 233.4,364.88 76.94,81.85 79.52,201.13 116.83,188.41 37.29,-12.75 119.3,-277.05 92.41,-360.05 -26.84,-82.92 -53.17,-142.02 83.25,-204.64 136.49,-62.64 172.24,-146.93 284.68,-161.31 112.42,-14.32 275.7,6.01 397.33,-163.7 121.58,-169.7 182.64,-242.6 331.85,-293.59 149.23,-50.96 226.18,30.91 310.47,-126.04 84.3,-156.96 298.71,-89.97 334.99,-150.45 36.27,-60.47 211.07,-88.08 535.59,-142.84 324.52,-54.75 315.43,-150.03 417.68,-56.78 102.23,93.25 126.63,47.36 143.12,7.68 22.19,-131.72 -81.48,-157.61 -271.38,-249"
         style="fill:#1b1918;fill-opacity:1;fill-rule:nonzero;stroke:none"
         id="path86" />
      <path
         d="m 6446.06,5538.8 c -22.24,-33.66 90.25,-73.57 90.25,-73.57 0,0 -8.35,0.19 -35.48,-94.69 -27.12,-94.86 -93.87,-93.41 -27.12,-94.86 66.81,-1.49 109.77,53.29 194.27,99.21 84.48,45.89 292.89,80.83 143.35,115.88 -149.56,35.05 -339.38,87.29 -365.27,48.03"
         style="fill:#492d1d;fill-opacity:1;fill-rule:nonzero;stroke:none"
         id="path88" />
      <path
         d="m 6242.09,4826.81 c -34.05,40.61 -80.41,6.56 -146.35,-27.47 -50.5,-26.05 -112.51,-52.12 -189.27,-44.66 -238.04,23.19 -559.73,172.06 -664.3,209.62 -76.23,27.38 -83.02,73.46 -161.8,93.46 -78.81,20 -240,29.42 -280.79,105.07 -40.83,75.61 -159.27,148.67 -238.84,152.28 -79.53,3.65 -222.32,28.61 -364.32,215.46 -142.05,186.8 -244.84,263.25 -482.69,290.51 -114.16,21.64 -249.47,161.01 -319.08,188.76 -69.57,27.75 -50.41,59.66 -38.96,116.56 11.44,56.84 -51.62,420.35 -119.33,489.04 -52.64,10.58 -79.55,3.65 -119.76,-101.09 -40.22,-104.74 -196.09,-220.55 -243.65,-292.15 -47.57,-71.57 -74.92,-283.47 -95.23,-339.87 -20.31,-56.5 -62.78,-210.3 -126.12,-240.19 -63.38,-29.84 -166.56,-156.28 -43.72,-375.06 122.83,-218.69 246.09,-429.27 250.44,-527.8 4.32,-98.55 59.1,-256.81 616.48,-462.66 311.85,-153.54 606.71,-289.98 666.7,-333.74 59.99,-43.72 951.55,-109.08 1080.52,-0.23 128.96,108.88 388.75,269.77 642.21,389.33 253.44,119.55 571.03,264.72 377.86,494.83"
         style="fill:#fcfab0;fill-opacity:1;fill-rule:nonzero;stroke:none"
         id="path90" />
      <path
         d="m 3181.12,4402.36 c -31.8,15.45 -57.45,28.54 -75.2,38.73 -19.68,11.28 -39.66,24.33 -59.36,39.17 37.12,-24.86 81.48,-50.85 134.56,-77.9 m 539.4,-245.44 c -147.54,66.88 -297.82,133.49 -415.89,187.57 50.75,-22 107.27,-44.63 170.17,-67.87 84.6,-41.66 167.98,-82.06 245.72,-119.7 m 899.25,-289.35 c -121.74,0 -234.2,11.3 -357.15,48.31 129.93,-17.75 341.5,-32.77 534.37,-32.77 129.16,0 249.86,6.72 332.2,23.91 -50.66,-13.7 -120.14,-20.89 -228.9,-27.5 -102.88,-6.25 -194.06,-11.95 -280.52,-11.95"
         style="fill:#95835a;fill-opacity:1;fill-rule:nonzero;stroke:none"
         id="path92" />
      <path
         d="m 2722.57,5062.02 c -72.38,115.83 -153.14,240.16 -172.26,301.98 -15.63,50.55 -9.24,111.7 9.7,161.84 -18.49,-62.73 -13.68,-149.16 47.87,-258.76 39.52,-70.34 79.06,-139.87 114.69,-205.06"
         style="fill:#f8d48c;fill-opacity:1;fill-rule:nonzero;stroke:none"
         id="path94" />
      <path
         d="m 4796.99,3883.11 c -192.87,0 -404.44,15.02 -534.37,32.77 -83.74,25.19 -172.31,62.31 -272.03,115.88 -82.88,39.73 -175.91,82.5 -270.07,125.16 -77.74,37.64 -161.12,78.04 -245.72,119.7 -62.9,23.24 -119.42,45.87 -170.17,67.87 -47.03,21.54 -88.9,41.08 -123.51,57.87 -53.08,27.05 -97.44,53.04 -134.56,77.9 -96.9,73.06 -187.06,189.76 -201.64,353.92 -9.91,44.62 -63.34,133.4 -122.35,227.84 -35.63,65.19 -75.17,134.72 -114.69,205.06 -61.55,109.6 -66.36,196.03 -47.87,258.76 20.77,54.99 56.66,96.74 95.11,96.74 4.39,0 8.79,-0.53 13.21,-1.67 0,0 -138.37,-120.72 -0.4,-299.13 137.96,-178.47 289.8,-345.24 294.61,-529.88 4.86,-184.64 210.25,-341.6 499.1,-416.31 54.61,-14.12 99.22,-18.98 137,-18.98 41.87,0 75.38,5.98 104.88,11.96 29.51,5.97 55.03,11.95 80.92,11.95 48.36,0 98.04,-20.86 177.61,-101.55 203.13,-205.99 71.69,-175.38 415.24,-215.69 94.13,-11.05 204.52,-16.38 317.68,-16.38 299.85,0 619.42,37.36 709.3,104.65 -143.71,-153.68 -164.43,-214.64 -275.08,-244.53 -82.34,-17.19 -203.04,-23.91 -332.2,-23.91"
         style="fill:#f8d165;fill-opacity:1;fill-rule:nonzero;stroke:none"
         id="path96" />
      <path
         d="m 3204.68,6600.53 c 76.97,19.93 -58.1,-399.01 -58.1,-399.01 0,0 58.22,-178.86 116.74,-206.15 83.62,-38.94 190.08,-137.49 297.1,-185.73 227.81,-102.6 526.05,-261.74 560.8,-374 12.58,-40.73 -29.66,-115.44 356.6,-190.5 81.48,-15.84 198.57,-15.23 281.12,-98.92 90.85,-92.13 231.95,-116.05 330.75,-174.94 122.87,-73.25 288.94,-134.23 332.18,-144.31 159.94,-37.21 390.47,-74.5 656.66,-90.59 135.55,59.38 107.94,117.02 149.63,76.75 311.94,-301.33 -490.16,-333.94 -342.67,-227.55 -21.72,-15.68 -64.06,1.84 -112.72,19.35 -72.13,25.96 -158.23,51.92 -211.87,-30.26 -57.13,-87.5 -70.43,-139.35 -123.49,-182.82 -43.17,-35.43 -237.07,-25.94 -260.02,-70.11 -59.11,-113.64 -644.72,-56.59 -891.58,65.34 -246.84,121.98 -166.15,142.89 -457.83,156.24 -291.66,13.33 -314.57,190.59 -682.38,281.17 -236.16,58.17 -111.86,109.88 -144.88,318.1 -27.5,173.4 -91.97,118.97 -158.03,417.1 -26.45,119.27 -107.51,361.46 -33.34,530.21 74.11,168.73 244.19,304.43 395.33,510.63"
         style="fill:#f0a132;fill-opacity:1;fill-rule:nonzero;stroke:none"
         id="path98" />
      <path
         d="m 2975.34,5235.35 c -9.61,16.35 -17.45,30.87 -23.63,43.96 8.56,-13.93 16.49,-27.7 23.63,-43.96"
         style="fill:#492d1d;fill-opacity:1;fill-rule:nonzero;stroke:none"
         id="path100" />
      <path
         d="m 4862.91,4340.42 c -40.54,0 -83.18,0.65 -127.46,1.54 -318.57,6.35 -455.46,110.99 -697.74,236.83 -70.71,36.75 -129.02,47.78 -179.75,47.78 -38,0 -71.78,-6.19 -103.29,-12.38 -31.54,-6.19 -60.85,-12.37 -90,-12.37 -36.05,0 -71.83,9.46 -111.16,40.1 -145.4,113.18 -187.33,164.31 -424.84,199.73 -237.51,35.47 -43.29,215.09 -142.26,375.37 -3.93,6.37 -7.61,12.47 -11.07,18.33 -7.14,16.26 -15.07,30.03 -23.63,43.96 -47.55,100.74 1.81,118.33 75.43,247.33 86.69,151.77 -104.53,37.61 -158.19,220.34 -53.64,182.8 60.47,246.14 198.66,277.81 3.19,0.73 6.4,1.08 9.68,1.08 88.87,0 210.31,-261.38 247.5,-381.7 38.62,-124.7 -9.72,-212.67 52.76,-395.84 62.48,-183.17 157.82,-228.51 333.46,-261.16 175.66,-32.59 291.28,-21.52 365.25,-147.87 57.47,-98.23 345.87,-182.22 518.6,-182.22 49.41,0 89.37,6.89 111.72,22.26 100.6,69.18 -29.35,132.49 -158.17,220.39 -128.83,87.85 -213.87,165.47 -635.11,250.3 -421.24,84.86 -234.14,109.12 -343.06,245.21 -108.91,136.12 -198.65,304.15 -159.89,376.16 8.83,16.47 24.63,23.19 45.54,23.19 70.52,0 198.99,-76.52 313.4,-113.39 148.4,-47.75 249.61,-158.94 297.78,-267.7 48.17,-108.72 256.56,-200.27 458.29,-242.28 201.83,-41.98 469.43,-193.57 651.65,-275.68 182.27,-82.08 140.91,-211.38 124.21,-382.74 -14.37,-147.54 -187.22,-172.38 -438.31,-172.38"
         style="fill:#47241c;fill-opacity:1;fill-rule:nonzero;stroke:none"
         id="path102" />
      <path
         d="m 6183.2,4845.91 c -96.74,-81.64 -158.78,-127.35 -388.28,-61.52 -277.36,79.54 -514.96,135.14 -589.99,236.97 -75.06,101.76 -322.85,57.78 -346.55,120.32 -23.73,62.55 -170.87,186.11 -290.17,191.55 -119.33,5.44 -268.68,79.9 -330.48,181.08 -61.78,101.23 -198.94,298.03 -424.29,308.36 -225.39,10.32 -296.07,153.7 -402.56,202.85 -162.63,75.01 25.19,115.62 -70.78,341.31 0,0 16.54,70.97 -45.24,172.17 -61.8,101.19 43.61,227.51 -108.39,99.23 -152,-128.3 37.24,-57.06 -274.63,-339.92 -168.1,-152.52 -156.47,-226.46 -179.27,-434.43 -22.79,-207.99 -249.27,-222.2 -231.76,-419.72 17.56,-197.53 283.61,-480.18 289.59,-640.33 5.95,-160.1 119.11,-300.5 339.41,-421.24 220.34,-120.72 844.89,-407.49 960.84,-486.57 115.98,-79.04 381.12,-91.21 540.19,-98.46 159.06,-7.26 625.91,32.89 670.15,129.18 44.26,96.37 429.26,284.29 633.21,385.63 203.9,101.32 284.54,122.21 384.07,265.23 99.53,142.98 -38.36,349.97 -135.07,268.31 m -189.81,-401 C 5790.01,4355.87 5462,4251.38 5255.26,4088.68 5048.55,3926 4983.4,3953.58 4663.53,3931.3 c -319.85,-22.26 -438.04,7.75 -541.31,73.94 -103.25,66.16 -546.15,258.59 -820.08,369.49 -273.89,110.88 -401.42,227.39 -394.7,374.58 6.75,147.26 -145.61,301.73 -243.81,478.39 -98.18,176.61 -79.34,298.73 4.7,393.21 84.04,94.53 140.98,177.98 163.24,373.67 22.21,195.73 172.54,287.22 256,369.46 83.5,82.25 89.08,204.95 128.28,190.85 39.21,-14.07 119.69,-288.26 89.25,-372.95 -30.45,-84.64 -59.76,-144.79 83.24,-212.81 143.03,-68.03 178.87,-155.72 297.66,-173.45 118.72,-17.72 292.22,-1.07 416.91,-178.89 124.75,-177.84 187.64,-254.49 344.49,-310.87 156.84,-56.33 240.32,25.96 325.82,-137.81 85.5,-163.75 314.24,-100.46 351.2,-163.62 36.99,-63.15 282.05,-183.61 624.51,-248.46 342.46,-64.85 256.93,-156.1 367.49,-62.78 110.53,93.28 126.04,141.73 148.05,42.36 20.37,-136.14 -67.76,-201.62 -271.08,-290.7"
         style="fill:#1b1918;fill-opacity:1;fill-rule:nonzero;stroke:none"
         id="path104" />
      <path
         d="m 5441.6,4798.78 c -24.36,-34.03 93.83,-78.06 93.83,-78.06 0,0 -8.84,0.4 -39.82,-96.55 -31.03,-96.92 -101.72,-93.69 -31.03,-96.92 70.71,-3.26 110.23,-28.54 200.85,16.49 90.62,45.03 296.14,84.8 138.56,124.81 -157.59,39.98 -333.99,169.94 -362.39,130.23"
         style="fill:#492d1d;fill-opacity:1;fill-rule:nonzero;stroke:none"
         id="path106" />
    </g>
  </g>
</svg>
